<?xml version="1.0" encoding="UTF-8" standalone="no"?>
<!-- Created with Inkscape (http://www.inkscape.org/) -->

<svg
   xmlns:dc="http://purl.org/dc/elements/1.1/"
   xmlns:cc="http://creativecommons.org/ns#"
   xmlns:rdf="http://www.w3.org/1999/02/22-rdf-syntax-ns#"
   xmlns:svg="http://www.w3.org/2000/svg"
   xmlns="http://www.w3.org/2000/svg"
   xmlns:sodipodi="http://sodipodi.sourceforge.net/DTD/sodipodi-0.dtd"
   xmlns:inkscape="http://www.inkscape.org/namespaces/inkscape"
   version="1.1"
   id="svg3713"
   xml:space="preserve"
   width="1440"
   height="1440"
   viewBox="0 0 1440 1440"
   sodipodi:docname="background.svg"
   inkscape:version="0.92.4 (5da689c313, 2019-01-14)"><metadata
     id="metadata3719"><rdf:RDF><cc:Work
         rdf:about=""><dc:format>image/svg+xml</dc:format><dc:type
           rdf:resource="http://purl.org/dc/dcmitype/StillImage" /></cc:Work></rdf:RDF></metadata><defs
     id="defs3717"><clipPath
       clipPathUnits="userSpaceOnUse"
       id="clipPath3731"><path
         d="M 0,1080 H 1080 V 0 H 0 Z"
         id="path3729"
         inkscape:connector-curvature="0" /></clipPath><linearGradient
       x1="0"
       y1="0"
       x2="1"
       y2="0"
       gradientUnits="userSpaceOnUse"
       gradientTransform="matrix(173.77975,474.47003,474.47003,-173.77975,453.11069,551.99988)"
       spreadMethod="pad"
       id="linearGradient3755"><stop
         style="stop-opacity:1;stop-color:#f2efef"
         offset="0"
         id="stop3749" /><stop
         style="stop-opacity:1;stop-color:#f2efef"
         offset="0.01113462"
         id="stop3751" /><stop
         style="stop-opacity:1;stop-color:#d4d2d2"
         offset="1"
         id="stop3753" /></linearGradient><clipPath
       clipPathUnits="userSpaceOnUse"
       id="clipPath3765"><path
         d="M 0,1080 H 1080 V 0 H 0 Z"
         id="path3763"
         inkscape:connector-curvature="0" /></clipPath></defs><sodipodi:namedview
     pagecolor="#ffffff"
     bordercolor="#666666"
     borderopacity="1"
     objecttolerance="10"
     gridtolerance="10"
     guidetolerance="10"
     inkscape:pageopacity="0"
     inkscape:pageshadow="2"
     inkscape:window-width="1050"
     inkscape:window-height="653"
     id="namedview3715"
     showgrid="false"
     inkscape:zoom="0.23177389"
     inkscape:cx="595.51937"
     inkscape:cy="1190.2938"
     inkscape:window-x="3629"
     inkscape:window-y="418"
     inkscape:window-maximized="0"
     inkscape:current-layer="g3721" /><g
     id="g3721"
     inkscape:groupmode="layer"
     inkscape:label="vectorstock_27736249"
     transform="matrix(1.3333333,0,0,-1.3333333,0,1440)"><path
       d="M 0,0 H 1080 V 1080 H 0 Z"
       style="fill:#ffffff;fill-opacity:1;fill-rule:nonzero;stroke:none"
       id="path3723"
       inkscape:connector-curvature="0" /><g
       id="g3725"><g
         id="g3727"
         clip-path="url(#clipPath3731)"><g
           id="g3733"
           transform="translate(923.0537,61.1826)"><path
             d="m 0,0 v 498.466 l -66.254,9.631 c -53.642,4.007 -130.122,26.406 -229.44,67.2 0.033,-4.899 -4.448,-11.299 -13.441,-19.2 -41.091,15.944 -87.171,41.384 -138.24,76.32 -4.409,-2.433 -9.689,-2.593 -15.839,-0.48 -2.634,1.488 -10.793,-2.512 -24.48,-12 0.84,-4.206 -2.201,-7.565 -9.12,-10.08 -22.804,-13.683 -56.083,-26.483 -99.84,-38.4 -41.593,-14.228 -98.077,-20.959 -169.454,-20.19 V 0 Z"
             style="fill:#cccccc;fill-opacity:1;fill-rule:evenodd;stroke:none"
             id="path3735"
             inkscape:connector-curvature="0" /></g></g></g><g
       id="g3737"
       transform="matrix(1.6164452,0,0,0.96222239,-363.85628,111.17568)"
       style="fill:#d4d2d2;fill-opacity:1"><g
         id="g3739"
         style="fill:#d4d2d2;fill-opacity:1"><g
           id="g3745"
           style="fill:#d4d2d2;fill-opacity:1"><g
             id="g3747"
             style="fill:#d4d2d2;fill-opacity:1"><path
               d="M 156.946,1018.816 V 612.449 c 71.377,-0.769 127.861,5.962 169.453,20.191 v 0 c 43.757,11.917 77.037,24.716 99.84,38.4 v 0 c 6.92,2.515 9.96,5.874 9.121,10.08 v 0 c 13.686,9.488 21.846,13.487 24.48,12 v 0 c 6.149,-2.114 11.43,-1.953 15.839,0.48 v 0 c 51.069,-34.937 97.149,-60.376 138.24,-76.321 v 0 c 8.993,7.901 13.474,14.302 13.44,19.201 v 0 c 99.319,-40.794 175.798,-63.194 229.441,-67.2 v 0 l 66.253,-9.631 v 459.167 z"
               style="fill:#d4d2d2;stroke:none;fill-opacity:1"
               id="path3757"
               inkscape:connector-curvature="0" /></g></g></g></g><g
       id="g3759"
       transform="matrix(1.4500121,0,0,1.6903068,-258.43914,-103.41686)"><g
         id="g3761"
         clip-path="url(#clipPath3765)"><g
           id="g3767"
           transform="translate(156.9458,587.0078)"><path
             d="M 0,0 V -525.825 H 766.108 V -16.74 c -20.453,0.206 -45.338,6.836 -74.654,19.892 -2.128,0.63 -5.968,3.35 -11.52,8.16 -1.949,-0.729 -6.222,-0.024 -12.816,2.113 -0.552,-0.183 -3.48,-0.808 -8.785,-1.873 -5.168,-0.048 -18.369,3.952 -39.599,12 -14.852,12.503 -27.252,19.543 -37.2,21.12 -9.293,10.669 -16.492,16.269 -21.601,16.8 -1.067,-1.364 -4.107,-2.644 -9.119,-3.84 -3.988,1.287 -7.613,1.284 -10.879,-0.008 0.576,0.203 -1.958,-1.714 -7.602,-5.752 -32.406,6.272 -71.446,27.711 -117.12,64.32 -6.675,-1.874 -17.075,-2.034 -31.199,-0.48 l -17.28,-9.12 C 357.014,92.292 324.695,76.611 269.773,59.552 252.217,47.144 217.658,32.424 166.093,15.392 115.759,6.011 60.395,0.88 0,0"
             style="fill:#b3b3b3;fill-opacity:1;fill-rule:evenodd;stroke:none"
             id="path3769"
             inkscape:connector-curvature="0" /></g><g
           id="g3771"
           transform="translate(156.9458,552.9863)"><path
             d="M 0,0 V -491.804 H 766.108 V -147.12 L 469.694,-98.666 C 378.653,-59.65 315.693,-20.37 280.813,19.173 c -25.846,26.275 -44.006,41.875 -54.479,46.801 -5.94,3.962 -16.9,5.082 -32.88,3.359 -2.391,-0.421 -5.031,-0.661 -7.92,-0.719 -5.889,2.624 -11.409,2.865 -16.56,0.719 -3.251,-2.854 -12.37,-7.814 -27.36,-14.88 -6.976,0.882 -16.257,-2.238 -27.84,-9.36 C 101.166,36.18 63.241,21.149 0,0"
             style="fill:#999999;fill-opacity:1;fill-rule:evenodd;stroke:none"
             id="path3773"
             inkscape:connector-curvature="0" /></g><g
           id="g3775"
           transform="translate(923.0537,432.7471)"><path
             d="m 0,0 -210.014,93.093 c -34.361,5.05 -79.882,21.21 -136.56,48.48 -2.711,2.917 -8.392,6.198 -17.04,9.84 -3.556,2.012 -9.715,2.492 -18.48,1.44 -0.735,3.853 -6.175,4.653 -16.32,2.399 0.845,-4.07 -2.196,-4.63 -9.12,-1.679 -2.485,3.584 -8.165,5.664 -17.04,6.239 -7.083,3.951 -17.563,5.631 -31.44,5.041 -5.453,-0.75 -11.213,0.45 -17.28,3.6 -3.589,5.064 -5.989,5.144 -7.2,0.24 -4.04,-0.602 -7.48,-0.361 -10.32,0.72 -1.856,4.735 -4.577,5.135 -8.16,1.2 -5.476,1.774 -13.476,1.134 -24,-1.92 -1.634,0.113 -4.034,1.633 -7.2,4.559 -7.322,0.79 -15.803,-1.37 -25.44,-6.48 -12.899,-2.663 -27.78,-4.743 -44.64,-6.239 -8.511,-3.202 -20.031,-6.162 -34.56,-8.88 -8.372,-8.22 -52.136,-21.332 -131.294,-39.333 V -371.564 H 0 Z"
             style="fill:#808080;fill-opacity:1;fill-rule:evenodd;stroke:none"
             id="path3777"
             inkscape:connector-curvature="0" /></g><g
           id="g3779"
           transform="translate(156.9458,411.1436)"><path
             d="M 0,0 V -349.961 H 766.108 V -13.92 L 429.854,84.937 c -2.915,6.508 -28.354,19.149 -76.32,37.919 -8.046,2.35 -17.166,1.871 -27.36,-1.44 -3.672,1.937 -7.992,1.136 -12.96,-2.399 -2.083,-1.415 -12.163,-4.295 -30.24,-8.641 z"
             style="fill:#666666;fill-opacity:1;fill-rule:evenodd;stroke:none"
             id="path3781"
             inkscape:connector-curvature="0" /></g><g
           id="g3783"
           transform="translate(156.9458,565.7017)"><path
             d="m 0,0 v -504.519 h 766.108 v 327.398 l -359.294,69.099 c -45.11,11.912 -98.231,42.152 -159.36,90.72 -8.449,5.974 -24.609,12.374 -48.48,19.2 -0.989,3.313 -21.629,3.153 -61.92,-0.48 -11.301,-0.289 -31.941,2.431 -61.92,8.16 -13.284,5.638 -27.524,6.439 -42.72,2.4 l -19.2,-5.28 c -2.465,-0.311 -4.226,4.49 -5.28,14.4 L 5.054,2.858 Z"
             style="fill:#4d4d4d;fill-opacity:1;fill-rule:evenodd;stroke:none"
             id="path3785"
             inkscape:connector-curvature="0" /></g><g
           id="g3787"
           transform="translate(878.1592,549.3599)"><path
             d="m 0,0 c -3.459,-1.008 -6.339,-0.688 -8.64,0.96 0.851,2.978 -0.109,5.778 -2.88,8.4 -0.9,0.631 -2.98,1.351 -6.24,2.16 -3.508,-4.838 -5.107,-10.199 -4.8,-16.08 l -2.879,-0.72 c -0.158,2.272 -0.877,5.632 -2.161,10.08 0.368,2.804 -1.793,6.324 -6.479,10.56 -4.928,-2.814 -8.368,-7.533 -10.32,-14.16 -1.418,-1.262 -2.859,-3.982 -4.321,-8.16 -1.604,1.719 -7.604,0.359 -18,-4.081 -1.679,4.321 -2.24,5.761 -1.679,4.321 3.371,0.621 6.251,2.941 8.639,6.96 1.059,5.279 -2.702,7.999 -11.28,8.16 -1.231,2.269 -2.911,5.069 -5.04,8.4 -5.485,-1.33 -8.686,-4.85 -9.6,-10.56 -3.192,-3.821 -3.592,-8.7 -1.2,-14.64 l 9.84,1.68 0.721,-4.8 c -5.76,-0.229 -10.72,-0.309 -14.881,-0.24 1.075,6.942 -2.125,11.502 -9.6,13.68 0.95,5.626 0.071,10.506 -2.639,14.64 -5.842,1.923 -9.443,0.083 -10.8,-5.52 -2.761,0.872 -4.2,-2.088 -4.321,-8.88 -1.148,0.078 -2.268,-1.362 -3.36,-4.32 l -2.159,-14.64 -5.04,1.68 c 0.942,2.627 0.623,5.267 -0.961,7.92 l -6.239,2.4 -8.641,-5.281 -3.359,-9.599 -16.8,-4.32 c 0.057,3.159 -2.183,7.798 -6.721,13.919 l -2.88,-10.559 -7.2,-1.44 c -0.194,-1.009 -1.794,-4.689 -4.8,-11.04 l -29.28,5.76 c -18.493,4.388 -38.333,0.868 -59.52,-10.56 0.308,-5.198 -33.613,-23.437 -101.76,-54.72 -5.537,-5.472 -48.097,-17.631 -127.679,-36.481 -6.666,5.057 -78.75,-20.537 -216.254,-76.781 V -488.177 H 44.895 V 6.018 c -1.293,-5.107 -4.338,-7.272 -9.134,-6.498 -0.684,3.455 -2.684,6.254 -6,8.4 l -5.04,-2.4 C 19.978,0.525 16.457,-1.715 14.16,-1.2 10.885,2.409 6.564,4.009 1.2,3.6 Z"
             style="fill:#333333;fill-opacity:1;fill-rule:evenodd;stroke:none"
             id="path3789"
             inkscape:connector-curvature="0" /></g><g
           id="g3791"
           transform="translate(879.7793,296.0752)"><path
             d="M 0,0 C 0.021,-0.052 0.04,-0.104 0.061,-0.155 -0.238,-0.21 -0.259,-0.158 0,0 m -137.699,35.364 c -4.022,-2.624 -5.555,-5.08 -4.603,-7.365 -1.503,1.958 -3.249,3.934 -5.237,5.926 1.704,-2.571 3.161,-5.007 4.369,-7.311 -2.483,-6.92 -2.9,-13.124 -1.249,-18.609 -1.791,-3.57 -3.791,-5.011 -6,-4.32 -2.707,5.302 -2.147,12.582 1.68,21.839 -5.908,-5.893 -10.788,-16.132 -14.64,-30.719 -2.662,4.818 -4.286,9.717 -4.87,14.698 l 5.59,0.662 c -1.601,1.578 -3.535,2.245 -5.804,1.999 -0.232,5.399 0.742,10.893 2.924,16.481 -4.371,-5.235 -6.541,-10.887 -6.51,-16.957 -5.627,-2.15 -8.204,-5.489 -7.732,-10.013 -3.436,11.965 -5.248,18.155 -5.439,18.57 1.789,-11.493 2.589,-19.733 2.401,-24.721 -9.897,17.389 -9.657,32.588 0.719,45.601 -9.158,-10.02 -13.081,-18.839 -11.769,-26.461 -3.709,10.722 -7.306,14.982 -10.79,12.78 5.179,-1.013 8.336,-6.888 9.472,-17.623 -0.557,-2.963 -2.035,-5.249 -4.432,-6.856 0.859,8.844 0.779,14.443 -0.24,16.8 -0.694,-11.24 -4.373,-18.999 -11.04,-23.281 -8.181,22.739 -8.5,38.739 -0.96,48 -8.214,-8.51 -12.497,-17.806 -12.851,-27.884 -0.852,6.656 -1.818,12.537 -2.897,17.641 1.352,-7.706 0.201,-15.491 -3.453,-23.356 -17.28,14.205 -25.186,26.509 -23.716,36.911 -3.225,-15.748 1.161,-28.212 13.157,-37.392 -18.653,8.174 -26.333,29.294 -23.04,63.361 -3.717,-12.502 -5.72,-26.125 -6.009,-40.869 -1.456,21.126 -5.053,30.91 -10.791,29.348 9.195,-17.074 7.436,-38.034 -5.28,-62.88 5.536,18.696 6.336,30.696 2.4,36 -1.017,-11.479 -2.938,-19.16 -5.761,-23.039 -5.58,4.675 -9.592,12.451 -12.036,23.327 4.278,5.956 7.771,12.662 10.481,20.12 -2.526,-4.279 -6.421,-8.84 -11.688,-13.684 -1.186,7.692 -1.731,16.651 -1.636,26.877 -1.669,-10.913 -2.238,-20.857 -1.707,-29.833 -9.429,-8.035 -22.46,-16.811 -39.093,-26.327 -0.432,16.163 5.648,34.403 18.24,54.719 -9.562,-8.99 -17.252,-22.987 -23.072,-41.992 1.574,8.69 0.144,16.607 -4.288,23.752 1.634,-9.865 -0.126,-19.944 -5.28,-30.239 -9.953,25.334 -0.833,46.934 27.36,64.8 -12.481,-4.666 -24.838,-16.387 -37.071,-35.162 5.552,9.742 9.269,21.622 11.151,35.642 -8.422,-20.64 -18.181,-32.481 -29.281,-35.52 10e-4,15.301 2.641,24.502 7.92,27.599 -5.013,1.799 -8.533,-3.321 -10.559,-15.359 -0.01,1.309 -0.57,3.709 -1.68,7.199 0.506,-6.061 -2.645,-12.46 -9.453,-19.195 2.482,8.262 1.954,18.18 -1.587,29.756 0.779,-4.687 0.219,-10.447 -1.681,-17.281 l -6.019,10.006 c 0.688,2.26 1.175,4.605 1.459,7.034 -0.265,-2.186 -0.929,-4.235 -1.992,-6.148 l -11.207,18.629 9.669,-20.949 c -2.003,-2.579 -4.826,-4.876 -8.469,-6.892 0.709,3.931 -0.332,9.852 -3.12,17.761 1.473,-7.56 0.833,-17.48 -1.92,-29.76 -1.191,8.951 -5.191,15.592 -12.001,19.92 7.16,-9.532 9.16,-17.692 6,-24.48 l -3.599,4.799 c -0.051,-3.74 -3.171,-6.299 -9.361,-7.679 4.157,4.352 4.876,9.792 2.161,16.32 0.877,-5.125 -1.123,-11.205 -6,-18.24 l 2.64,39.599 -4.56,-23.759 -11.52,-3.361 c 6.861,3.421 11.101,9.261 12.719,17.521 -1.359,-5.27 -8.559,-11.669 -21.6,-19.2 l 7.921,12.24 -14.161,-15.361 c 1.421,3.278 3.101,9.997 5.041,20.161 L -484.5,36.805 c -3.961,1.79 -3.881,4.91 0.241,9.36 l -12.241,-9.36 c 4.607,4.301 8.607,9.662 12,16.08 -4.218,-4.103 -10.138,-10.183 -17.759,-18.24 2.329,10.649 -1.607,17.931 -11.809,21.845 -1.284,5.17 -3.028,9.729 -5.232,13.674 5.838,-15.668 3.278,-25.588 -7.679,-29.76 0.828,7.363 3.627,12.243 8.399,14.641 -3.587,1.675 -7.507,-2.165 -11.759,-11.521 3.471,10.238 2.271,19.598 -3.6,28.08 3.112,-7.722 1.913,-14.762 -3.601,-21.12 l -1.68,6.96 -1.199,-9.599 -12.96,-5.04 c -1.988,2.871 -1.508,7.671 1.44,14.399 -1.734,-1.725 -6.534,-9.644 -14.4,-23.76 l 2.16,9.12 -8.16,-11.759 c 2.254,11.483 2.814,21.723 1.68,30.719 l -7.681,-32.16 c -0.536,3.945 -2.336,6.424 -5.4,7.441 l 3.481,13.679 -18,-20.639 c 1.877,2.317 7.157,10.077 15.84,23.28 l -16.32,-18 c -1.264,2.403 -0.865,6.644 1.199,12.72 -5.194,-1.842 -9.034,-5.842 -11.52,-12 l -4.799,14.639 c 3.906,-17.426 2.226,-23.907 -5.04,-19.439 l -1.201,16.559 -3.119,-21.839 c -0.303,3.14 -1.663,7.3 -4.081,12.48 0.105,-5.554 -2.135,-10.754 -6.72,-15.6 -0.022,0.64 0.058,4.879 0.24,12.719 -0.225,0.794 3.455,7.514 11.041,20.16 -3.009,-3.147 -8.208,-10.587 -15.6,-22.319 2.667,7.624 0.907,17.065 -5.281,28.319 3.617,-8.332 4.337,-19.131 2.161,-32.4 l -3.121,8.4 -2.64,-21.839 -1.44,33.599 -1.92,-37.68 c -0.238,13.348 -4.193,22.368 -11.864,27.059 1.56,6.315 4.075,14.575 7.545,24.781 -5.248,-11.022 -11.969,-28.462 -20.161,-52.32 2.036,7.531 1.211,16.145 -2.474,25.84 3.096,-8.949 -1.199,-23.803 -12.885,-44.56 -6.462,7.982 -2.942,17.102 10.56,27.361 -7.98,-1.161 -15.34,-7.241 -22.08,-18.241 0.486,4.637 -1.274,11.837 -5.281,21.601 0.999,-5.46 0.519,-13.62 -1.44,-24.48 -3.996,7.715 -6.716,20.036 -8.159,36.959 l -6.014,-22.113 V -234.893 H 43.274 V 6.531 L 37.5,13.524 C 39.962,8.807 38.842,5.687 34.141,4.165 L 29.82,27.685 C 27.971,17.792 27.41,10.272 28.141,5.125 23.915,7.799 21.195,11.398 19.98,15.925 19.395,11.673 20.034,8.873 21.9,7.524 16.411,6.808 12.251,4.817 9.421,1.554 4.188,11.771 3.709,20.321 7.98,27.204 1.048,17.488 -0.152,9.089 4.381,2.004 1.945,0.964 0.485,0.296 0,0 -2.528,6.609 -2.189,12.477 1.021,17.604 -2.461,15.348 -4.381,12.228 -4.739,8.245 l -3.12,-0.961 c -3.036,8.883 -4.076,14.963 -3.12,18.24 C -14.25,19.487 -14.49,13.647 -11.7,8.005 l -9.599,10.32 c -1.386,5.849 -1.386,9.609 0,11.279 -2.438,-2.132 -3.478,-4.693 -3.121,-7.679 -5.301,6.166 -11.06,9.765 -17.279,10.8 11.308,-6.7 17.629,-14.06 18.96,-22.08 l -12.481,12.24 c 4.456,-5.839 6.056,-9.999 4.8,-12.481 -6.135,-2.749 -9.575,-6.028 -10.319,-9.84 -0.922,8.454 0.358,15.013 3.84,19.681 -5.21,-1.797 -8.491,-5.637 -9.84,-11.52 -1.169,8.876 -0.77,15.836 1.199,20.879 -4.813,-7.774 -8.245,-15.556 -10.298,-23.348 2.479,14.347 1.911,23.33 -1.701,26.949 1.856,-11.572 0.177,-23.811 -5.04,-36.721 2.766,10.3 3.167,16.941 1.199,19.92 0.321,-8.92 -2.319,-14.84 -7.92,-17.759 2.96,13.152 5.92,22.512 8.88,28.08 -7.545,-6.487 -14.425,-14.887 -20.64,-25.201 -5.436,6.378 -4.715,14.938 2.161,25.68 -9.011,-10.892 -11.411,-22.491 -7.201,-34.8 -11.858,22.419 -16.257,37.379 -13.2,44.88 -3.416,-6.064 -3.816,-16.704 -1.199,-31.92 -7.413,7.757 -10.533,11.037 -9.36,9.841 l 4.559,9.359 c -8.374,-7.706 -12.765,-13.294 -13.175,-16.765 1.355,15.591 -2.573,25.819 -11.785,30.685 7.217,-9.659 10.017,-20.859 8.401,-33.599 -3.06,10.926 -5.06,17.485 -6,19.679 0.671,-8.45 -0.609,-14.769 -3.84,-18.96 0.222,11.202 0.675,18.406 1.356,21.612 -2.763,-5.315 -4.426,-10.771 -4.986,-16.368 -0.123,4.844 -1.902,9.806 -5.337,14.885 0.745,5.32 1.734,8.531 2.967,9.631 M -55.838,6.256 c -0.462,-2.672 -1.029,-5.528 -1.701,-8.571 0.381,2.858 0.948,5.714 1.701,8.571 m -79.491,4.592 c 0.03,-1.185 -0.038,-2.364 -0.206,-3.535 0.02,1.185 0.09,2.363 0.206,3.535 m -6.364,12.746 c 3.019,-6.689 3.711,-12.125 2.074,-16.309 -2.939,4.292 -3.63,9.729 -2.074,16.309 M -171.814,8.345 c 0.347,-2.601 1.079,-5.275 2.195,-8.021 -4.97,-3.082 -7.449,-2.442 -7.441,1.921 1.492,4.437 3.241,6.47 5.246,6.1 m -7.967,-6.67 c 0.405,-1.41 0.832,-2.901 1.282,-4.47 -0.711,1.6 -1.139,3.09 -1.282,4.47 m -14.088,12.989 c 0.481,-1.391 0.965,-2.891 1.45,-4.499 -0.7,1.45 -1.183,2.95 -1.45,4.499 M -224.71,16.6 c 0.48,-3.741 0.923,-7.726 1.331,-11.955 -1.023,4.1 -1.467,8.085 -1.331,11.955 m -45.958,16.296 c 0.428,-6.201 0.67,-13.377 0.729,-21.532 -0.622,7.425 -0.865,14.602 -0.729,21.532 m -35.182,-1.995 c 1.244,-8.464 3.613,-15.937 7.111,-22.417 -7.011,-1.391 -13.411,-1.872 -19.2,-1.439 l 8.16,11.519 -27.361,-9.599 c 12.754,5.086 23.184,12.398 31.29,21.936 m -44.761,-5.369 c -0.493,-2.726 -1.283,-5.529 -2.368,-8.407 0.751,2.903 1.541,5.706 2.368,8.407 m -19.279,23.151 c -1.021,-1.792 -2.104,-3.511 -3.249,-5.159 1.082,1.776 2.165,3.495 3.249,5.159 m -42.38,19.504 3.851,-8.342 -11.76,-3.84 c 3.466,3.712 6.102,7.773 7.909,12.182 M -514.068,56.49 c 10.345,-5.764 12.122,-14.726 5.329,-26.886 v 15.6 l -2.64,-14.399 c 0.028,9.793 -0.868,18.354 -2.689,25.685 M -583.74,36.805 c 4.699,-4.769 3.539,-9.329 -3.479,-13.68 z m -78.704,1.858 c 6.637,-7.054 6.032,-11.434 -1.815,-13.139 -0.358,2.416 0.247,6.796 1.815,13.139"
             style="fill:#1a1a1a;fill-opacity:1;fill-rule:evenodd;stroke:none"
             id="path3793"
             inkscape:connector-curvature="0" /></g><g
           id="g3795"
           transform="translate(651.3945,333.7803)"><path
             d="M 0,0 C -3.295,13.799 -7.546,21.019 -12.755,21.659 -6.248,14.512 -1.996,7.292 0,0"
             style="fill:#1a1a1a;fill-opacity:1;fill-rule:evenodd;stroke:none"
             id="path3797"
             inkscape:connector-curvature="0" /></g></g></g></g></svg>