<?xml version="1.0" encoding="UTF-8" standalone="no"?>
<!-- Created with Inkscape (http://www.inkscape.org/) -->

<svg
   xmlns:dc="http://purl.org/dc/elements/1.1/"
   xmlns:cc="http://creativecommons.org/ns#"
   xmlns:rdf="http://www.w3.org/1999/02/22-rdf-syntax-ns#"
   xmlns:svg="http://www.w3.org/2000/svg"
   xmlns="http://www.w3.org/2000/svg"
   xmlns:sodipodi="http://sodipodi.sourceforge.net/DTD/sodipodi-0.dtd"
   xmlns:inkscape="http://www.inkscape.org/namespaces/inkscape"
   version="1.1"
   id="svg1048"
   xml:space="preserve"
   width="1000"
   height="666.66669"
   viewBox="0 0 1000 666.66669"
   sodipodi:docname="mountains.svg"
   inkscape:version="0.92.4 (5da689c313, 2019-01-14)"><metadata
     id="metadata1054"><rdf:RDF><cc:Work
         rdf:about=""><dc:format>image/svg+xml</dc:format><dc:type
           rdf:resource="http://purl.org/dc/dcmitype/StillImage" /><dc:title></dc:title></cc:Work></rdf:RDF></metadata><defs
     id="defs1052"><linearGradient
       x1="0"
       y1="0"
       x2="1"
       y2="0"
       gradientUnits="userSpaceOnUse"
       gradientTransform="matrix(0,239.99249,239.99249,0,375,287.4075)"
       spreadMethod="pad"
       id="linearGradient1076"><stop
         style="stop-opacity:1;stop-color:#bfd0bc"
         offset="0"
         id="stop1070" /><stop
         style="stop-opacity:1;stop-color:#bfd0bc"
         offset="0.26300429"
         id="stop1072" /><stop
         style="stop-opacity:1;stop-color:#a671ec"
         offset="1"
         id="stop1074" /></linearGradient><linearGradient
       x1="0"
       y1="0"
       x2="1"
       y2="0"
       gradientUnits="userSpaceOnUse"
       gradientTransform="matrix(0,145.74489,145.74489,0,289.16666,170.55811)"
       spreadMethod="pad"
       id="linearGradient1098"><stop
         style="stop-opacity:1;stop-color:#bfd0bc"
         offset="0"
         id="stop1092" /><stop
         style="stop-opacity:1;stop-color:#bfd0bc"
         offset="0.26300429"
         id="stop1094" /><stop
         style="stop-opacity:1;stop-color:#a671ec"
         offset="1"
         id="stop1096" /></linearGradient><linearGradient
       x1="0"
       y1="0"
       x2="1"
       y2="0"
       gradientUnits="userSpaceOnUse"
       gradientTransform="matrix(0,145.59154,145.59154,0,434.66666,155.66669)"
       spreadMethod="pad"
       id="linearGradient1122"><stop
         style="stop-opacity:1;stop-color:#ddc0e2"
         offset="0"
         id="stop1114" /><stop
         style="stop-opacity:1;stop-color:#ddc0e2"
         offset="0.0344351"
         id="stop1116" /><stop
         style="stop-opacity:1;stop-color:#ddc0e2"
         offset="0.12160684"
         id="stop1118" /><stop
         style="stop-opacity:1;stop-color:#7a4eed"
         offset="1"
         id="stop1120" /></linearGradient><clipPath
       clipPathUnits="userSpaceOnUse"
       id="clipPath1132"><path
         d="M 0,0 H 750 V 500 H 0 Z"
         id="path1130"
         inkscape:connector-curvature="0" /></clipPath><clipPath
       clipPathUnits="userSpaceOnUse"
       id="clipPath1140"><path
         d="M 343.512,284 H 496 V 169.012 H 343.512 Z"
         id="path1138"
         inkscape:connector-curvature="0" /></clipPath><clipPath
       clipPathUnits="userSpaceOnUse"
       id="clipPath1156"><path
         d="M 461.333,345 H 572.858 V 226.506 H 461.333 Z"
         id="path1154"
         inkscape:connector-curvature="0" /></clipPath><linearGradient
       x1="0"
       y1="0"
       x2="1"
       y2="0"
       gradientUnits="userSpaceOnUse"
       gradientTransform="matrix(0,141.07048,141.07048,0,365.33334,76.999985)"
       spreadMethod="pad"
       id="linearGradient1184"><stop
         style="stop-opacity:1;stop-color:#b395d3"
         offset="0"
         id="stop1178" /><stop
         style="stop-opacity:1;stop-color:#5b39b5"
         offset="0.71282442"
         id="stop1180" /><stop
         style="stop-opacity:1;stop-color:#5b39b5"
         offset="1"
         id="stop1182" /></linearGradient><clipPath
       clipPathUnits="userSpaceOnUse"
       id="clipPath1194"><path
         d="M 0,0 H 750 V 500 H 0 Z"
         id="path1192"
         inkscape:connector-curvature="0" /></clipPath><clipPath
       clipPathUnits="userSpaceOnUse"
       id="clipPath1202"><path
         d="M 158,253 H 290 V 222.333 H 158 Z"
         id="path1200"
         inkscape:connector-curvature="0" /></clipPath><clipPath
       clipPathUnits="userSpaceOnUse"
       id="clipPath1218"><path
         d="M 188.414,241.667 H 525.057 V 104.833 H 188.414 Z"
         id="path1216"
         inkscape:connector-curvature="0" /></clipPath><linearGradient
       x1="0"
       y1="0"
       x2="1"
       y2="0"
       gradientUnits="userSpaceOnUse"
       gradientTransform="matrix(0,233.00072,233.00072,0,366.5,28.000044)"
       spreadMethod="pad"
       id="linearGradient1248"><stop
         style="stop-opacity:1;stop-color:#8d6dc6"
         offset="0"
         id="stop1240" /><stop
         style="stop-opacity:1;stop-color:#8d6dc6"
         offset="0.00614984"
         id="stop1242" /><stop
         style="stop-opacity:1;stop-color:#3a1a8e"
         offset="0.50959198"
         id="stop1244" /><stop
         style="stop-opacity:1;stop-color:#3a1a8e"
         offset="1"
         id="stop1246" /></linearGradient><clipPath
       clipPathUnits="userSpaceOnUse"
       id="clipPath1258"><path
         d="M 0,0 H 750 V 500 H 0 Z"
         id="path1256"
         inkscape:connector-curvature="0" /></clipPath><clipPath
       clipPathUnits="userSpaceOnUse"
       id="clipPath1266"><path
         d="M 475,290.167 H 605 V 144 H 475 Z"
         id="path1264"
         inkscape:connector-curvature="0" /></clipPath><clipPath
       clipPathUnits="userSpaceOnUse"
       id="clipPath1282"><path
         d="M 625,345 H 767 V 169.012 H 625 Z"
         id="path1280"
         inkscape:connector-curvature="0" /></clipPath><clipPath
       clipPathUnits="userSpaceOnUse"
       id="clipPath1298"><path
         d="M -34,235.242 H 40.0663 V 125.15 H -34 Z"
         id="path1296"
         inkscape:connector-curvature="0" /></clipPath><clipPath
       clipPathUnits="userSpaceOnUse"
       id="clipPath1314"><path
         d="M 375.247,482.982 H 1016.75 V -158.525 H 375.247 Z"
         id="path1312"
         inkscape:connector-curvature="0" /></clipPath><clipPath
       clipPathUnits="userSpaceOnUse"
       id="clipPath1318"><path
         d="m 1016.753,162.229 c 0,-177.148 -143.606,-320.754 -320.753,-320.754 -177.147,0 -320.753,143.606 -320.753,320.754 0,177.146 143.606,320.752 320.753,320.752 177.147,0 320.753,-143.606 320.753,-320.752"
         id="path1316"
         inkscape:connector-curvature="0" /></clipPath><radialGradient
       fx="0"
       fy="0"
       cx="0"
       cy="0"
       r="1"
       gradientUnits="userSpaceOnUse"
       gradientTransform="matrix(320.75323,0,0,-320.75323,696,162.22826)"
       spreadMethod="pad"
       id="radialGradient1330"><stop
         style="stop-opacity:1;stop-color:#ffffff"
         offset="0"
         id="stop1324" /><stop
         style="stop-opacity:1;stop-color:#ffffff"
         offset="0.0494992"
         id="stop1326" /><stop
         style="stop-opacity:0;stop-color:#ffffff"
         offset="1"
         id="stop1328" /></radialGradient><mask
       maskUnits="userSpaceOnUse"
       x="0"
       y="0"
       width="1"
       height="1"
       id="mask1332"><g
         id="g1342"><g
           id="g1340"><g
             id="g1338"><g
               id="g1336"><path
                 d="M -32768,32767 H 32767 V -32768 H -32768 Z"
                 style="fill:url(#radialGradient1330);stroke:none"
                 id="path1334"
                 inkscape:connector-curvature="0" /></g></g></g></g></mask><radialGradient
       fx="0"
       fy="0"
       cx="0"
       cy="0"
       r="1"
       gradientUnits="userSpaceOnUse"
       gradientTransform="matrix(320.75323,0,0,-320.75323,696,162.22826)"
       spreadMethod="pad"
       id="radialGradient1350"><stop
         style="stop-opacity:1;stop-color:#8cefbe"
         offset="0"
         id="stop1344" /><stop
         style="stop-opacity:1;stop-color:#8cefbe"
         offset="0.0494992"
         id="stop1346" /><stop
         style="stop-opacity:1;stop-color:#8cefbe"
         offset="1"
         id="stop1348" /></radialGradient><clipPath
       clipPathUnits="userSpaceOnUse"
       id="clipPath1376"><path
         d="M -515.293,1033.29 H 551.293 V -33.293 H -515.293 Z"
         id="path1374"
         inkscape:connector-curvature="0" /></clipPath><clipPath
       clipPathUnits="userSpaceOnUse"
       id="clipPath1380"><path
         d="M 551.293,500 C 551.293,205.471 312.53,-33.293 18,-33.293 c -294.53,0 -533.293,238.764 -533.293,533.293 0,294.53 238.763,533.293 533.293,533.293 294.53,0 533.293,-238.763 533.293,-533.293"
         id="path1378"
         inkscape:connector-curvature="0" /></clipPath><radialGradient
       fx="0"
       fy="0"
       cx="0"
       cy="0"
       r="1"
       gradientUnits="userSpaceOnUse"
       gradientTransform="matrix(533.29303,0,0,-533.29303,18,500)"
       spreadMethod="pad"
       id="radialGradient1392"><stop
         style="stop-opacity:1;stop-color:#ffffff"
         offset="0"
         id="stop1386" /><stop
         style="stop-opacity:1;stop-color:#ffffff"
         offset="0.0494992"
         id="stop1388" /><stop
         style="stop-opacity:0;stop-color:#ffffff"
         offset="1"
         id="stop1390" /></radialGradient><mask
       maskUnits="userSpaceOnUse"
       x="0"
       y="0"
       width="1"
       height="1"
       id="mask1394"><g
         id="g1404"><g
           id="g1402"><g
             id="g1400"><g
               id="g1398"><path
                 d="M -32768,32767 H 32767 V -32768 H -32768 Z"
                 style="fill:url(#radialGradient1392);stroke:none"
                 id="path1396"
                 inkscape:connector-curvature="0" /></g></g></g></g></mask><radialGradient
       fx="0"
       fy="0"
       cx="0"
       cy="0"
       r="1"
       gradientUnits="userSpaceOnUse"
       gradientTransform="matrix(533.29303,0,0,-533.29303,18,500)"
       spreadMethod="pad"
       id="radialGradient1412"><stop
         style="stop-opacity:1;stop-color:#8cefbe"
         offset="0"
         id="stop1406" /><stop
         style="stop-opacity:1;stop-color:#8cefbe"
         offset="0.0494992"
         id="stop1408" /><stop
         style="stop-opacity:1;stop-color:#8cefbe"
         offset="1"
         id="stop1410" /></radialGradient><linearGradient
       x1="0"
       y1="0"
       x2="1"
       y2="0"
       gradientUnits="userSpaceOnUse"
       gradientTransform="matrix(0,122.00044,122.00044,0,298.66669,71.999962)"
       spreadMethod="pad"
       id="linearGradient1450"><stop
         style="stop-opacity:1;stop-color:#5e3fa6"
         offset="0"
         id="stop1444" /><stop
         style="stop-opacity:1;stop-color:#281168"
         offset="0.87215134"
         id="stop1446" /><stop
         style="stop-opacity:1;stop-color:#281168"
         offset="1"
         id="stop1448" /></linearGradient><clipPath
       clipPathUnits="userSpaceOnUse"
       id="clipPath1460"><path
         d="M 0,0 H 750 V 500 H 0 Z"
         id="path1458"
         inkscape:connector-curvature="0" /></clipPath><clipPath
       clipPathUnits="userSpaceOnUse"
       id="clipPath1468"><path
         d="M 38.6667,209.667 H 169.333 V 122.333 H 38.6667 Z"
         id="path1466"
         inkscape:connector-curvature="0" /></clipPath><linearGradient
       x1="0"
       y1="0"
       x2="1"
       y2="0"
       gradientUnits="userSpaceOnUse"
       gradientTransform="matrix(0,188.70918,188.70918,0,382.43283,3.9965703)"
       spreadMethod="pad"
       id="linearGradient1498"><stop
         style="stop-opacity:1;stop-color:#432982"
         offset="0"
         id="stop1490" /><stop
         style="stop-opacity:1;stop-color:#432982"
         offset="0.201386"
         id="stop1492" /><stop
         style="stop-opacity:1;stop-color:#1e0b53"
         offset="0.77065756"
         id="stop1494" /><stop
         style="stop-opacity:1;stop-color:#1e0b53"
         offset="1"
         id="stop1496" /></linearGradient><clipPath
       clipPathUnits="userSpaceOnUse"
       id="clipPath1508"><path
         d="M 0,0 H 750 V 500 H 0 Z"
         id="path1506"
         inkscape:connector-curvature="0" /></clipPath><clipPath
       clipPathUnits="userSpaceOnUse"
       id="clipPath1516"><path
         d="M -6.46761,510.333 H 584.667 V 378.104 H -6.46761 Z"
         id="path1514"
         inkscape:connector-curvature="0" /></clipPath><clipPath
       clipPathUnits="userSpaceOnUse"
       id="clipPath1532"><path
         d="M -22,424.16 H 272.5 V 357.778 H -22 Z"
         id="path1530"
         inkscape:connector-curvature="0" /></clipPath><clipPath
       clipPathUnits="userSpaceOnUse"
       id="clipPath1548"><path
         d="M 295,374.394 H 536 V 357.427 H 295 Z"
         id="path1546"
         inkscape:connector-curvature="0" /></clipPath><clipPath
       clipPathUnits="userSpaceOnUse"
       id="clipPath1564"><path
         d="M 547,397.621 H 750 V 345 H 547 Z"
         id="path1562"
         inkscape:connector-curvature="0" /></clipPath><clipPath
       clipPathUnits="userSpaceOnUse"
       id="clipPath1580"><path
         d="M 607.5,451.418 H 756 V 428 H 607.5 Z"
         id="path1578"
         inkscape:connector-curvature="0" /></clipPath><linearGradient
       x1="0"
       y1="0"
       x2="1"
       y2="0"
       gradientUnits="userSpaceOnUse"
       gradientTransform="matrix(0,111.87937,111.87937,0,162.09955,-82.999962)"
       spreadMethod="pad"
       id="linearGradient1638"><stop
         style="stop-opacity:1;stop-color:#432982"
         offset="0"
         id="stop1630" /><stop
         style="stop-opacity:1;stop-color:#432982"
         offset="0.339543"
         id="stop1632" /><stop
         style="stop-opacity:1;stop-color:#1e0b53"
         offset="0.81033288"
         id="stop1634" /><stop
         style="stop-opacity:1;stop-color:#1e0b53"
         offset="1"
         id="stop1636" /></linearGradient><linearGradient
       x1="0"
       y1="0"
       x2="1"
       y2="0"
       gradientUnits="userSpaceOnUse"
       gradientTransform="matrix(0,121.26423,121.26423,0,510.125,-75.000046)"
       spreadMethod="pad"
       id="linearGradient1662"><stop
         style="stop-opacity:1;stop-color:#432982"
         offset="0"
         id="stop1654" /><stop
         style="stop-opacity:1;stop-color:#432982"
         offset="0.0476963"
         id="stop1656" /><stop
         style="stop-opacity:1;stop-color:#15063f"
         offset="0.72652164"
         id="stop1658" /><stop
         style="stop-opacity:1;stop-color:#15063f"
         offset="1"
         id="stop1660" /></linearGradient><clipPath
       clipPathUnits="userSpaceOnUse"
       id="clipPath1672"><path
         d="M 0,500 H 750 V 0 H 0 Z"
         id="path1670"
         inkscape:connector-curvature="0" /></clipPath></defs><sodipodi:namedview
     pagecolor="#ffffff"
     bordercolor="#666666"
     borderopacity="1"
     objecttolerance="10"
     gridtolerance="10"
     guidetolerance="10"
     inkscape:pageopacity="0"
     inkscape:pageshadow="2"
     inkscape:window-width="2160"
     inkscape:window-height="1346"
     id="namedview1050"
     showgrid="false"
     inkscape:zoom="1.416"
     inkscape:cx="437.72544"
     inkscape:cy="263.72781"
     inkscape:window-x="-11"
     inkscape:window-y="-11"
     inkscape:window-maximized="1"
     inkscape:current-layer="g1056" /><g
     id="g1056"
     inkscape:groupmode="layer"
     inkscape:label="2846339"
     transform="matrix(1.3333333,0,0,-1.3333333,0,666.66667)"><g
       id="g1058"><g
         id="g1060"
         style="fill:#b4a7d1;fill-opacity:1"><g
           id="g1066"
           style="fill:#b4a7d1;fill-opacity:1"><g
             id="g1068"
             style="fill:#b4a7d1;fill-opacity:1"><path
               d="M 0,0 H 750 V 500 H 0 Z"
               style="fill:#b4a7d1;stroke:none;fill-opacity:1"
               id="path1078"
               inkscape:connector-curvature="0" /></g></g></g></g><g
       id="g1080"
       transform="translate(-0.79449032,-5.8262715)"
       style="fill:#b19cd6;fill-opacity:1"><g
         id="g1082"
         style="fill:#b19cd6;fill-opacity:1"><g
           id="g1088"
           style="fill:#b19cd6;fill-opacity:1"><g
             id="g1090"
             style="fill:#b19cd6;fill-opacity:1"><path
               d="m 316.5,290.166 c -7,-1.832 -80,-40.166 -80,-40.166 v 0 l -36,3 -89,31 L 63,270 H 31 L 0,262.554 V 162.229 H 591.333 V 202.25 L 422,284 359.5,294.5 c 0,0 -36,-2.5 -43,-4.334"
               style="fill:#b19cd6;fill-opacity:1;stroke:none"
               id="path1100"
               inkscape:connector-curvature="0" /></g></g></g></g><g
       id="g1102"><g
         id="g1104"><g
           id="g1110"><g
             id="g1112"><path
               d="M 446.124,345 436.835,335.667 390.5,284 343.512,263.667 278,217.083 v -48.071 h 313.333 l -36,112.029 L 504,322.333 496,333 482,332.333 461.333,345 Z"
               style="fill:url(#linearGradient1122);stroke:none"
               id="path1124"
               inkscape:connector-curvature="0" /></g></g></g></g><g
       id="g1126"><g
         id="g1128"
         clip-path="url(#clipPath1132)"><g
           id="g1134"><g
             id="g1136" /><g
             id="g1148"><g
               clip-path="url(#clipPath1140)"
               id="g1146"
               style="opacity:0.14999402"><g
                 transform="translate(343.5117,263.6665)"
                 id="g1144"><path
                   d="m 0,0 54.488,-29.167 82,-65.488 h 16 L 91.155,-22 l -9.167,19.333 -18.5,5 -16.5,18 z"
                   style="fill:#222265;fill-opacity:1;fill-rule:nonzero;stroke:none"
                   id="path1142"
                   inkscape:connector-curvature="0" /></g></g></g></g><g
           id="g1150"><g
             id="g1152" /><g
             id="g1164"><g
               clip-path="url(#clipPath1156)"
               id="g1162"
               style="opacity:0.14999402"><g
                 transform="translate(461.333,345)"
                 id="g1160"><path
                   d="M 0,0 19.667,-34.5 48.792,-45.333 95.167,-84.5 111.525,-118.494 94,-63.958 l -51.333,41.291 -8,10.667 -14,-0.667 z"
                   style="fill:#222265;fill-opacity:1;fill-rule:nonzero;stroke:none"
                   id="path1158"
                   inkscape:connector-curvature="0" /></g></g></g></g></g></g><g
       id="g1166"><g
         id="g1168"><g
           id="g1174"><g
             id="g1176"><path
               d="M 709.333,294.917 670,283 l -74,-52.667 -106,-16 -66.938,6 -30.835,7.334 L 375,224.333 311.932,241.667 290,253 260,252.334 246,241.667 226.667,241 158,222.333 73.334,209.667 0,195.194 v -90.361 h 750 v 187.153 l -25.333,7.681 z"
               style="fill:url(#linearGradient1184);stroke:none"
               id="path1186"
               inkscape:connector-curvature="0" /></g></g></g></g><g
       id="g1188"><g
         id="g1190"
         clip-path="url(#clipPath1194)"><g
           id="g1196"><g
             id="g1198" /><g
             id="g1210"><g
               clip-path="url(#clipPath1202)"
               id="g1208"
               style="opacity:0.32000703"><g
                 transform="translate(290,253)"
                 id="g1206"><path
                   d="M 0,0 -26.667,-5.333 -38.333,-19.667 -67.667,-18 -132,-30.667 -63.333,-12 -44,-11.333 -30,-0.667 Z"
                   style="fill:#ffffff;fill-opacity:1;fill-rule:nonzero;stroke:none"
                   id="path1204"
                   inkscape:connector-curvature="0" /></g></g></g></g><g
           id="g1212"><g
             id="g1214" /><g
             id="g1226"><g
               clip-path="url(#clipPath1218)"
               id="g1224"
               style="opacity:0.14999402"><g
                 transform="translate(349.6665,196.333)"
                 id="g1222"><path
                   d="m 0,0 -36.333,-22.333 -71.334,-8 -53.585,-61.167 H 175.39 L 142.498,18.327 140.333,18 73.396,24 42.561,31.334 25.333,28 -37.734,45.334 0,13.334 Z"
                   style="fill:#222265;fill-opacity:1;fill-rule:nonzero;stroke:none"
                   id="path1220"
                   inkscape:connector-curvature="0" /></g></g></g></g></g></g><g
       id="g1228"><g
         id="g1230"><g
           id="g1236"><g
             id="g1238"><path
               d="m 562.5,360 c 0,0 -9,-15 -14.5,-17.5 v 0 C 542.5,340 531,323 531,323 v 0 l -29,-35 -10.5,1.5 c 0,0 -10.5,1.5 -16.5,0 v 0 C 469,288 468,272 468,272 v 0 c 0,0 -9,-9 -13,-22 v 0 c -4,-13 -20.036,-40.333 -20.036,-40.333 v 0 h -8.346 L 409.824,204 396.007,185 344.932,168 277,154 c 0,0 -93,1 -114.9,8 v 0 C 140.199,169 66,234 66,234 v 0 c 0,0 -21,3 -39,0 v 0 C 20.296,232.883 10.126,222.613 0,210.16 v 0 V 0 H 750 V 200.159 L 723,229 c 0,0 -14,11 -22,17.5 v 0 c -8,6.5 -25,43 -25,43 v 0 c 0,0 -12.5,12 -24,18 v 0 c -11.5,6 -27,37.5 -27,37.5 v 0 l -39,15 z"
               style="fill:url(#linearGradient1248);stroke:none"
               id="path1250"
               inkscape:connector-curvature="0" /></g></g></g></g><g
       id="g1252"><g
         id="g1254"
         clip-path="url(#clipPath1258)"><g
           id="g1260"><g
             id="g1262" /><g
             id="g1274"><g
               clip-path="url(#clipPath1266)"
               id="g1272"
               style="opacity:0.33000201"><g
                 transform="translate(524.5,203.5)"
                 id="g1270"><path
                   d="M 0,0 24.065,-36.764 33.5,-59.5 l 47,12 C 80.5,-47.5 47,3 35,13.25 23,23.5 3,33 3,33 L -22.5,84.5 -33,86 c 0,0 -10.5,1.5 -16.5,0 0,0 20,-29 23.5,-46.5 C -22.5,22 0,0 0,0"
                   style="fill:#222265;fill-opacity:1;fill-rule:nonzero;stroke:none"
                   id="path1268"
                   inkscape:connector-curvature="0" /></g></g></g></g><g
           id="g1276"><g
             id="g1278" /><g
             id="g1290"><g
               clip-path="url(#clipPath1282)"
               id="g1288"
               style="opacity:0.33000201"><g
                 transform="translate(656.5,275)"
                 id="g1286"><path
                   d="m 0,0 21,-61 4.5,16.5 37.5,-36 47.5,-25.488 V -93 l -44,47 c 0,0 -14,11 -22,17.5 -8,6.5 -25,43 -25,43 0,0 -12.5,12 -24,18 -11.5,6 -27,37.5 -27,37.5 l 17,-46 z"
                   style="fill:#222265;fill-opacity:1;fill-rule:nonzero;stroke:none"
                   id="path1284"
                   inkscape:connector-curvature="0" /></g></g></g></g><g
           id="g1292"><g
             id="g1294" /><g
             id="g1306"><g
               clip-path="url(#clipPath1298)"
               id="g1304"
               style="opacity:0.32000703"><g
                 transform="translate(-34,125.1494)"
                 id="g1302"><path
                   d="M 0,0 27.532,31.351 50.5,65.045 74.066,110.093 c -4.309,-0.155 -8.772,-0.527 -13.066,-1.242 -18,-3 -61,-72 -61,-72 z"
                   style="fill:#ffffff;fill-opacity:1;fill-rule:nonzero;stroke:none"
                   id="path1300"
                   inkscape:connector-curvature="0" /></g></g></g></g><g
           id="g1370"><g
             id="g1372" /><g
             id="g1430" /></g></g></g><g
       id="g1432"><g
         id="g1434"><g
           id="g1440"><g
             id="g1442"><path
               d="m 115.333,195 c 0,0 -10.667,-32.667 -20,-38 v 0 C 86,151.667 63.334,140 63.334,140 v 0 L 38.667,122.66 H 18 L 0,105.562 V 0 h 614.667 v 35.654 c 0,0 -96.834,33.013 -110.417,37.846 v 0 C 490.667,78.333 446.337,107 436.835,111 v 0 c -9.502,4 -35.737,4 -35.737,4 v 0 l -11.35,9.333 -21.738,5.334 -8.562,3.333 -21.809,20.667 c 0,0 -21.221,1.333 -33.764,4 v 0 c -12.541,2.666 -34.542,6.666 -34.542,6.666 v 0 L 224,185 l -54.667,20.667 -38.667,4 z"
               style="fill:url(#linearGradient1450);stroke:none"
               id="path1452"
               inkscape:connector-curvature="0" /></g></g></g></g><g
       id="g1454"><g
         id="g1456"
         clip-path="url(#clipPath1460)"><g
           id="g1462"><g
             id="g1464" /><g
             id="g1476"><g
               clip-path="url(#clipPath1468)"
               id="g1474"
               style="opacity:0.10000598"><g
                 transform="translate(74,140)"
                 id="g1472"><path
                   d="m 0,0 36,15.667 28.667,34.527 30.666,15.473 -38.666,4 L 41.333,55 c 0,0 -10.666,-32.667 -20,-38 -9.333,-5.333 -32,-17 -32,-17 L -35.333,-17.34 -24,-17.667 Z"
                   style="fill:#ffffff;fill-opacity:1;fill-rule:nonzero;stroke:none"
                   id="path1470"
                   inkscape:connector-curvature="0" /></g></g></g></g></g></g><g
       id="g1478"><g
         id="g1480"><g
           id="g1486"><g
             id="g1488"><path
               d="m 554.667,170.333 -108.543,-64 c 0,0 -38.429,-10 -42.276,-11.333 v 0 C 400,93.667 385.996,88.934 375,89.667 v 0 c -2.206,0.147 -4.166,-0.679 -6.538,-1.506 v 0 C 365.458,87.115 361.792,86.068 356.131,87 v 0 C 346,88.667 334,94.333 330.666,93.333 v 0 c -3.332,-1 -22.999,-7.666 -36.333,-9.333 v 0 C 281,82.333 275,83.667 267.666,80 v 0 C 260.333,76.333 246,67.667 244,67 v 0 c -0.889,-0.297 -2.305,-0.067 -3.662,0.163 v 0 c -1.696,0.289 -3.301,0.577 -3.671,-0.163 v 0 c -0.667,-1.333 -10,9 -11,10 v 0 c -0.404,0.404 -1.025,-0.441 -2.016,-1.287 v 0 c -1.465,-1.248 -3.739,-2.497 -7.317,0.287 v 0 c -6,4.667 -13.667,5.667 -15,5 v 0 C 200,80.333 175.667,68.667 172.667,68.333 v 0 c -1.334,-0.148 -3.852,-0.033 -6.326,0.082 v 0 c -3.094,0.144 -6.119,0.288 -6.675,-0.082 v 0 C 158.785,67.747 30.532,30.168 0,21.227 v 0 V 0 h 750 v 140 h -14.667 l -26.666,13 c 0,0 -20.667,17.333 -33.334,21.333 v 0 c -12.666,4 -42,11.334 -42,11.334 v 0 c 0,0 -14.666,7.333 -24.666,3.333 v 0 c -10,-4 -31.334,1.194 -31.334,1.194 v 0 z"
               style="fill:url(#linearGradient1498);stroke:none"
               id="path1500"
               inkscape:connector-curvature="0" /></g></g></g></g><g
       id="g1502"><g
         id="g1504"
         clip-path="url(#clipPath1508)"><g
           id="g1510"><g
             id="g1512" /><g
             id="g1524"><g
               clip-path="url(#clipPath1516)"
               id="g1522"
               style="opacity:0.32000703"><g
                 transform="translate(584.667,510.3335)"
                 id="g1520"><path
                   d="m 0,0 c 0,0 -30.667,-18.667 -44.667,-21.333 -14,-2.667 -8,-3.334 -20,-4.667 -12,-1.333 -12.667,2.667 -26.667,0 -14,-2.667 -24,-2 -27.333,-8.667 -3.333,-6.666 21.333,-2.666 20,-8.666 -1.333,-6 -19.333,-4 -24.667,-7.334 -5.333,-3.333 18.667,-3.333 -17.333,-7.333 -36,-4 -28.667,8 -51.333,-6.667 -22.667,-14.666 -22,-12 -44.667,-15.333 -22.666,-3.333 -42,-4.667 -28.666,-13.333 13.333,-8.667 71.333,-7.334 75.333,-12 4,-4.667 -33.333,-6.667 -58,-6 -24.667,0.666 -39.333,8.416 -70,-0.125 C -348.667,-120 -351.333,-126 -382,-126 c -30.667,0 -38,1.333 -90,-4 -52,-5.333 -46.323,0.667 -80.667,0 -34.344,-0.667 -38.468,0.667 -38.468,0.667 v 126 z"
                   style="fill:#f1e9c1;fill-opacity:1;fill-rule:nonzero;stroke:none"
                   id="path1518"
                   inkscape:connector-curvature="0" /></g></g></g></g><g
           id="g1526"><g
             id="g1528" /><g
             id="g1540"><g
               clip-path="url(#clipPath1532)"
               id="g1538"
               style="opacity:0.32000703"><g
                 transform="translate(-22,421)"
                 id="g1536"><path
                   d="M 0,0 C 0,0 44.633,4 62.066,3 79.5,2 99,-4 120.5,-6 142,-8 187.167,-8.5 191.333,-15 195.5,-21.5 202,-26 218,-28 c 16,-2 15,-10.292 31.5,-14.896 16.5,-4.604 45,-10.604 45,-10.604 0,0 -34,-2 -54,0 -20,2 -24,3.5 -40,1.5 -16,-2 -21,6.5 -36,6 -15,-0.5 -15,-3.278 -26.5,-8.389 C 126.5,-59.5 129.5,-67 101,-61 72.5,-55 67.5,-59.5 46.5,-61 25.5,-62.5 9.5,-63 7,-61 4.5,-59 0,0 0,0"
                   style="fill:#f1e9c1;fill-opacity:1;fill-rule:nonzero;stroke:none"
                   id="path1534"
                   inkscape:connector-curvature="0" /></g></g></g></g><g
           id="g1542"><g
             id="g1544" /><g
             id="g1556"><g
               clip-path="url(#clipPath1548)"
               id="g1554"
               style="opacity:0.32000703"><g
                 transform="translate(295,362.5)"
                 id="g1552"><path
                   d="M 0,0 C 0,0 15,-3.943 39.5,-4.722 64,-5.5 90,-2.943 110,-4.722 130,-6.5 156,-1 173.5,0 191,1 217,1 220,0 c 3,-1 21,0.75 21,0.75 0,0 -16.5,5.25 -32.5,5.75 -16,0.5 -29,-0.5 -39,3.5 -10,4 -24.167,0.5 -29.833,0 C 134,9.5 117.5,4 101,6 84.5,8 64,7.5 64,7.5 Z"
                   style="fill:#f1e9c1;fill-opacity:1;fill-rule:nonzero;stroke:none"
                   id="path1550"
                   inkscape:connector-curvature="0" /></g></g></g></g><g
           id="g1558"><g
             id="g1560" /><g
             id="g1572"><g
               clip-path="url(#clipPath1564)"
               id="g1570"
               style="opacity:0.32000703"><g
                 transform="translate(547,381)"
                 id="g1568"><path
                   d="M 0,0 C 0,0 17.5,8.208 41.5,7.104 65.5,6 77.5,0.913 89,7.207 c 11.5,6.293 16,8.293 30,9.293 14,1 17,-4.5 32.5,-5 15.5,-0.5 51.5,3 51.5,3 V -36 c 0,0 -23,5 -39.5,6 -16.5,1 -21.5,1.5 -36,8 -14.5,6.5 -12.5,3.5 -34,6 -21.5,2.5 -14,-1.379 -35,6.311 C 37.5,-2 9,3.5 0,0"
                   style="fill:#f1e9c1;fill-opacity:1;fill-rule:nonzero;stroke:none"
                   id="path1566"
                   inkscape:connector-curvature="0" /></g></g></g></g><g
           id="g1574"><g
             id="g1576" /><g
             id="g1588"><g
               clip-path="url(#clipPath1580)"
               id="g1586"
               style="opacity:0.32000703"><g
                 transform="translate(607.5,437.5)"
                 id="g1584"><path
                   d="m 0,0 c 0,0 26.5,7.5 35.5,12 9,4.5 16,0 26.5,-2.5 C 72.5,7 81.5,3.918 92.5,6.959 103.5,10 112,6 119,4.5 c 7,-1.5 29.5,-1 29.5,-1 v -13 c 0,0 -43,2 -54,3.5 -11,1.5 -12,-4.5 -29.5,1.5 C 47.5,1.5 50,5.918 34,2.209 18,-1.5 0,0 0,0"
                   style="fill:#f1e9c1;fill-opacity:1;fill-rule:nonzero;stroke:none"
                   id="path1582"
                   inkscape:connector-curvature="0" /></g></g></g></g><g
           id="g1590"
           transform="translate(485.8828,376.2095)"><path
             d="M 0,0 C 0,0 -3.982,1.786 -5.905,0 -5.905,0 -2.197,0.55 0,-2.197 2.198,0.55 5.906,0 5.906,0 3.983,1.786 0,0 0,0"
             style="fill:#5d2c80;fill-opacity:1;fill-rule:nonzero;stroke:none"
             id="path1592"
             inkscape:connector-curvature="0" /></g><g
           id="g1594"
           transform="translate(338.856,319.2578)"><path
             d="M 0,0 C 0,0 -5.01,2.246 -7.428,0 -7.428,0 -2.764,0.691 0,-2.764 2.764,0.691 7.428,0 7.428,0 5.01,2.246 0,0 0,0"
             style="fill:#5d2c80;fill-opacity:1;fill-rule:nonzero;stroke:none"
             id="path1596"
             inkscape:connector-curvature="0" /></g><g
           id="g1598"
           transform="translate(549.8643,402.4238)"><path
             d="M 0,0 C 0,0 -6.652,2.982 -9.864,0 -9.864,0 -3.671,0.917 0,-3.67 3.67,0.917 9.864,0 9.864,0 6.652,2.982 0,0 0,0"
             style="fill:#5d2c80;fill-opacity:1;fill-rule:nonzero;stroke:none"
             id="path1600"
             inkscape:connector-curvature="0" /></g><g
           id="g1602"
           transform="translate(504.9922,381.8857)"><path
             d="m 0,0 c 0,0 -2.34,1.049 -3.471,0 0,0 2.18,0.323 3.471,-1.291 C 1.292,0.323 3.471,0 3.471,0 2.341,1.049 0,0 0,0"
             style="fill:#5d2c80;fill-opacity:1;fill-rule:nonzero;stroke:none"
             id="path1604"
             inkscape:connector-curvature="0" /></g><g
           id="g1606"
           transform="translate(662.7354,325.708)"><path
             d="M 0,0 C 0,0 -2.186,0.98 -3.241,0 -3.241,0 -1.206,0.301 0,-1.206 1.206,0.301 3.241,0 3.241,0 2.186,0.98 0,0 0,0"
             style="fill:#5d2c80;fill-opacity:1;fill-rule:nonzero;stroke:none"
             id="path1608"
             inkscape:connector-curvature="0" /></g><g
           id="g1610"
           transform="translate(356.7358,313)"><path
             d="M 0,0 C 0,0 -2.186,0.98 -3.241,0 -3.241,0 -1.206,0.301 0,-1.206 1.206,0.301 3.241,0 3.241,0 2.186,0.98 0,0 0,0"
             style="fill:#5d2c80;fill-opacity:1;fill-rule:nonzero;stroke:none"
             id="path1612"
             inkscape:connector-curvature="0" /></g><g
           id="g1614"
           transform="translate(302.1372,300.0791)"><path
             d="M 0,0 C 0,0 -2.34,1.049 -3.471,0 -3.471,0 -1.292,0.323 0,-1.292 1.292,0.323 3.471,0 3.471,0 2.341,1.049 0,0 0,0"
             style="fill:#5d2c80;fill-opacity:1;fill-rule:nonzero;stroke:none"
             id="path1616"
             inkscape:connector-curvature="0" /></g></g></g><g
       id="g1618"><g
         id="g1620"><g
           id="g1626"><g
             id="g1628"><path
               d="m 36.251,96.54 c -3.236,-1.941 -3.236,-8.414 -2.912,-9.87 v 0 c 0.323,-1.456 1.455,-9.547 -1.133,-10.842 v 0 c -2.59,-1.294 -3.884,-4.045 -4.046,-5.34 v 0 c -0.162,-1.293 -3.236,8.576 -3.236,8.576 v 0 c 0,0 -5.178,0 -6.472,2.266 v 0 c -1.294,2.266 -2.914,9.71 -2.914,9.71 v 0 c 0,0 -1.132,8.09 -2.75,3.559 v 0 C 11.17,90.068 12.95,86.347 11.655,84.244 v 0 C 10.361,82.139 7.124,82.301 7.124,82.301 v 0 L 3.079,87.803 0,90.934 V 0 h 324.067 c -1.813,4.214 -3.704,8.147 -5.251,10.333 v 0 c -4.483,6.334 -13.483,11.353 -13.483,11.353 v 0 c 0,0 -11.667,-1.314 -15.333,0 v 0 c -3.667,1.314 -3.667,9.381 -6,10.848 v 0 C 281.667,34 279.667,50 274.333,51 v 0 c -0.666,-5.333 4.333,-12.059 -1.999,-15.697 v 0 C 266,31.667 263,27.255 263,24.461 v 0 C 263,21.667 260,17 260,17 v 0 c 0,0 -1.581,4.621 -4.979,5.592 v 0 c -3.398,0.972 -4.854,-0.753 -4.854,-0.753 v 0 l -0.971,2.872 c 0,0 -4.693,-2.279 -6.473,-0.176 v 0 c -1.78,2.102 -3.398,3.801 -3.398,3.801 v 0 c 0,0 -3.721,-2.683 -4.854,-0.088 v 0 c -1.132,2.597 -1.942,8.26 -3.399,9.231 v 0 c -1.455,0.971 0,13.521 0,13.521 v 0 c 0,0 -4.044,-7.21 -4.368,-12.064 v 0 c -0.323,-4.855 -2.751,-7.135 -4.854,-10.688 v 0 C 219.746,24.695 221.041,21.116 219.584,17 v 0 c -1.456,-4.117 -5.34,-6.059 -5.987,-3.145 v 0 c -0.647,2.912 1.133,4.854 -2.588,4.206 v 0 c -3.723,-0.647 -5.988,-1.941 -5.988,-1.941 v 0 c 0,0 1.456,3.35 -1.618,5.719 v 0 c -1.327,1.022 -1.99,0.887 -2.537,0.752 v 0 c -0.721,-0.178 -1.239,-0.357 -2.803,2.12 v 0 c -1.499,2.373 -3.576,1.974 -5.6,1.575 v 0 c -1.689,-0.333 -3.343,-0.665 -4.594,0.614 v 0 c -2.751,2.812 -4.208,7.582 -4.208,7.582 v 0 c 0,0 0,5.1 -1.132,7.69 v 0 c -1.132,2.589 -4.207,1.941 -4.207,1.941 v 0 c 0,0 -0.324,5.502 -3.56,9.385 v 0 c -3.236,3.884 -1.779,5.664 -2.75,7.929 v 0 c -0.972,2.265 -3.723,3.851 -4.208,2.573 v 0 c -0.485,-1.278 -0.647,-7.427 -3.56,-10.502 v 0 c -1.379,-1.456 -2.721,-0.989 -4.009,-0.524 v 0 c -1.435,0.518 -2.803,1.037 -4.081,-1.094 v 0 c -2.428,-4.045 -4.531,-6.796 -4.531,-6.796 v 0 c 0,0 -6.473,2.589 -7.605,4.369 v 0 c -1.133,1.78 -0.971,4.37 -2.427,5.178 v 0 c -1.457,0.809 -2.428,13.916 -4.208,14.564 v 0 c -1.779,0.647 0,-4.079 -0.97,-5.195 v 0 c -0.971,-1.116 -7.768,0.663 -7.605,-6.618 v 0 c 0.161,-7.282 -4.531,4.045 -4.531,4.045 v 0 l -2.751,5.988 c 0,0 -1.942,14.238 -3.236,12.135 v 0 c -1.295,-2.104 -1.78,-10.841 -1.78,-10.841 v 0 c 0,0 -3.398,-1.943 -4.046,-6.635 v 0 c -0.646,-4.692 -1.132,-8.09 -1.618,-8.737 v 0 c -0.485,-0.647 -2.427,3.074 -3.56,3.559 v 0 C 106.154,57.382 105.83,76.8 104.859,76.8 v 0 c -0.971,0 -2.912,-5.987 -2.912,-7.282 v 0 c 0,-1.294 -0.485,-8.576 -2.59,-8.737 v 0 c -0.701,-0.054 -1.438,-10e-4 -2.152,0.053 v 0 c -1.425,0.108 -2.756,0.215 -3.51,-0.539 v 0 c -0.522,-0.522 -1.418,2.069 -2.439,4.658 v 0 c -1.201,3.045 -2.574,6.09 -3.71,4.079 v 0 c -2.105,-3.722 -2.59,-5.34 -2.59,-5.34 v 0 l -3.236,5.34 c 0,0 -2.103,19.741 -4.369,18.608 v 0 c -2.265,-1.132 -1.942,-7.605 -1.942,-8.251 v 0 c 0,-0.648 1.133,-2.589 -1.294,-5.503 v 0 c -2.427,-2.912 -2.913,-6.148 -3.074,-7.281 v 0 C 70.879,65.472 69.26,63.207 69.26,63.207 v 0 l -3.721,8.253 c 0,0 -2.751,11.651 -3.074,12.297 v 0 c -0.324,0.648 -2.59,0.487 -1.943,-5.501 v 0 c 0.648,-5.988 0.162,-8.738 -1.294,-9.709 v 0 c -1.456,-0.97 -6.635,4.854 -6.635,4.854 v 0 l -3.397,6.149 c 0,0 -2.428,-0.161 -2.104,-5.987 v 0 C 47.416,67.738 46.283,64.34 45.959,63.369 v 0 c -0.324,-0.97 -4.53,11.974 -4.53,12.459 v 0 c 0,0.486 -4.046,5.664 -4.369,6.473 v 0 c -0.305,0.761 2.111,14.407 -0.294,14.409 v 0 c -0.152,0 -0.323,-0.054 -0.515,-0.17"
               style="fill:url(#linearGradient1638);stroke:none"
               id="path1640"
               inkscape:connector-curvature="0" /></g></g></g></g><g
       id="g1642"><g
         id="g1644"><g
           id="g1650"><g
             id="g1652"><path
               d="m 617.75,121.25 c -1.5,-10 -2,-6.25 -2.75,-13.75 v 0 c -0.75,-7.5 -1.25,-18.25 -1.25,-18.25 v 0 c 0,0 -4,10.5 -4.75,11.75 v 0 c -0.75,1.25 0,13.25 0,13.25 v 0 c 0,0 0.833,16.5 -0.333,18.75 v 0 c -1.167,2.25 -2.167,-4 -2.167,-4 v 0 c 0,0 -0.75,-10.5 -4.5,-15.25 v 0 C 598.25,109 599,99.5 599,99.5 v 0 L 596.25,89 v -6.5 c 0,0 -1.5,11 -3.5,15.5 v 0 c -2,4.5 -2,15.75 -2,15.75 v 0 c 0,0 -2.25,-2.5 -2.75,-7 v 0 c -0.5,-4.5 0,-12 0,-12 v 0 c 0,0 -4,-5.75 -4,-7.75 v 0 c 0,0 -0.75,9 -2,9.875 v 0 c -1.25,0.875 -1,-3.625 -2.25,-3.625 v 0 c -1.25,0 -6,14.5 -6,14.5 v 0 l -1.114,4.457 c 0.1,-0.758 0.173,-2.543 -0.136,-6.707 v 0 c -0.5,-6.75 0,-12.75 0,-12.75 v 0 l -4,2.75 c 0,0 -0.75,10.75 -2,11.5 v 0 c -1.25,0.75 -1.25,-6.75 -1.75,-8 v 0 c -0.5,-1.25 -3.5,-2.25 -3.75,-10.5 v 0 c -0.25,-8.25 -1.75,-12 -1.75,-12 v 0 c 0,0 -4.5,4 -5.25,-2.5 v 0 c -0.75,-6.5 -7,-3.5 -7,-3.5 v 0 c 0,0 -2.75,-6.25 -5,-3.75 v 0 c -1.1,1.221 -2.915,-0.124 -4.689,-1.469 v 0 C 535.455,63.873 533.644,62.465 532.75,64 v 0 c -1.75,3 0.5,5.5 0,9.5 v 0 c -0.5,4 -1.5,6.25 -2,9 v 0 c -0.5,2.75 0,12.5 0,12.5 v 0 c 0,0 -3.5,1.75 -3.5,-4 v 0 c 0,-5.75 0.25,-9.75 -2,-14.25 v 0 l -3.75,-7.5 c 0,0 -0.25,4.25 0,9 v 0 c 0.25,4.75 1.278,10.25 -0.111,10.25 v 0 C 520,88.5 520,87.5 519.25,82.75 v 0 C 518.5,78 515.5,68.5 515.5,68.5 v 0 c 0,0 -1,4.75 -1.5,9 v 0 c -0.5,4.25 0,6.75 0,6.75 v 0 c 0,0 -3.75,-0.25 -3.75,-3.25 v 0 C 510.25,78 508,69.75 508,69.75 v 0 l -1.5,-5.5 c 0,0 -3,5.5 -2.25,9.25 v 0 c 0.75,3.75 -0.12,14.25 -0.12,14.25 v 0 c 0,0 -3.13,-2 -3.13,-6 v 0 c 0,-4 0.75,-8.5 0,-10 v 0 c -0.75,-1.5 -3,-3.75 -3,-5.25 v 0 -5.5 c 0,0 -7.75,-3.75 -7.75,-4.5 v 0 c 0,-0.75 -1.75,-4.75 -1.75,-4.75 v 0 c 0,0 -6.75,0.75 -8,3.5 v 0 C 479.25,58 475.75,67 475.75,67 v 0 c 0,0 -0.25,-2.75 -1.25,-5.5 v 0 c -1,-2.75 -0.5,-5.5 -1.75,-9.75 v 0 c -1.25,-4.25 -2,-5 -3,-3.75 v 0 c -1,1.25 -4,4.25 -3,8.5 v 0 c 1,4.25 -0.25,1.75 -1.25,8.75 v 0 C 464.5,72.25 464,77 464,77 v 0 c 0,0 -3.25,-3.75 -4.25,-10 v 0 c -1,-6.25 2.25,-8 0,-11.75 v 0 C 457.5,51.5 455.5,49.657 455.5,47.453 v 0 c 0,-2.203 -1,-4.953 -1.5,-3.703 v 0 c -0.5,1.25 -1,7.75 -3.25,10 v 0 c -2.25,2.25 -1,-4.5 -1.75,-5.25 v 0 c -0.75,-0.75 -4,-3.75 -4,-3.75 v 0 c 0,0 1,4.75 0,8 v 0 c -1,3.25 0.25,10 0,11.25 v 0 c -0.25,1.25 -2.388,5.75 -2.388,5.75 v 0 c 0,0 -2.66,-5.75 -3.511,-8.5 v 0 c -0.851,-2.75 -3.645,0 -3.498,-4.75 v 0 c 0.147,-4.75 -1.353,-12 -2.353,-11.75 v 0 c -1,0.25 -2.077,6 -2.038,7.25 v 0 c 0.038,1.25 1.71,2.75 0,8.5 v 0 c -1.622,5.446 -3.575,8.874 -3.742,10.071 v 0 C 427.463,69.722 427.43,67.535 427.459,67 v 0 c 0.041,-0.75 -0.472,-10 -0.841,-10.75 v 0 C 426.25,55.5 425.5,55.75 424.25,47.5 v 0 c -1.25,-8.25 -3,-8.804 -3.5,-8.777 v 0 c -0.5,0.027 -1.244,13.527 -1.244,13.527 v 0 L 416.5,59 c 0,0 -1.615,-13.5 -4.183,-13.5 v 0 c -2.567,0 -5.622,5.25 -5.72,6.25 v 0 c -0.097,1 -6.097,7.25 -6.597,12 v 0 c -0.5,4.75 -1.25,7 -1.25,7 v 0 c 0,0 -4.921,-8.5 -4.46,-13.5 v 0 c 0.46,-5 -2.063,-13.75 -2.063,-13.75 v 0 c 0,0 -6.241,4.75 -8.234,11.5 v 0 c -1.993,6.75 -5.21,15.25 -5.21,15.25 v 0 c 0,0 -4.806,-14.75 -3.545,-17.25 v 0 c 1.262,-2.5 -8.219,-7 -7.228,-10 v 0 c 0.99,-3 -8.562,-4.277 -8.562,-4.277 v 0 L 354,45.25 l -4.25,12 c 0,0 -3.385,-10.5 -4.818,-13.75 v 0 c -1.432,-3.25 -4.358,-9.223 -4.358,-9.223 v 0 l -7.074,9.973 -4.313,8.25 c 0,0 -3.233,-10.25 -2.71,-12.5 v 0 C 327,37.75 324,35.32 324,34.534 v 0 c 0,-0.784 -3.5,1.12 -3.5,1.12 v 0 10.096 L 317.25,55 c 0,0 -2.252,-8.5 -1.876,-9.25 v 0 C 315.75,45 314,38.723 314,38.723 v 0 l -6.807,-3.069 -4.693,-6.161 c 0,0 -0.75,5.757 -1.75,10.507 v 0 c -1,4.75 0,10.5 0,10.5 v 0 c 0,0 -4.5,-4.621 -3.25,-13.435 v 0 c 1.25,-8.815 0.5,-13.444 -1.25,-15.379 v 0 C 294.5,19.75 291.5,22.5 290.5,16.5 v 0 c -1,-6 -5.75,-9.75 -6.75,-10.5 V 6 C 283.059,5.481 277.23,2.215 273.697,0 V 0 H 750 v 61.322 c -1.873,1.686 -3.363,3.362 -3.75,4.678 v 0 c -1.25,4.25 0.75,8.25 0,12.75 v 0 c -0.75,4.5 -0.422,10.5 -0.422,10.5 v 0 l -2.578,13 c 0,0 -0.25,-4.5 -2.25,-9.75 v 0 C 739,87.25 736.75,81.25 737.75,78 v 0 c 1,-3.25 -1.25,-8 -1.25,-8 v 0 c 0,0 1,-10 -1.25,-8 v 0 c -2.25,2 -3.75,7.25 -3.75,7.25 v 0 c 0,0 1.75,-7.75 -1.5,-6 v 0 c -3.25,1.75 -5,7 -5,7 v 0 c 0,0 -2.75,-5 -4,-4 v 0 c -1.25,1 -6,0 -7.5,3.25 v 0 c -1.5,3.25 -4,12.25 -7,14.75 v 0 c -3,2.5 -4,9 -5.75,9 v 0 c -1.75,0 -2.25,-11 -3.5,-13.25 v 0 c -1.25,-2.25 -3,-7.75 -3,-7.75 v 0 c 0,0 -2,6.75 -3.25,10.5 v 0 c -1.25,3.75 -2,5.25 -3,9.75 v 0 c -1,4.5 -2.75,6.5 -2.75,6.5 v 0 c 0,0 -1.5,-4 -1.75,-7 v 0 c -0.25,-3 0,-11.5 0,-11.5 v 0 L 683.389,75 c 0,0 -7.889,6 -8.139,12.5 v 0 c -0.25,6.5 -3,7.5 -3,7.5 v 0 c 0,0 -2.75,4 -4.25,5.75 v 0 c -1.5,1.75 -0.75,16.25 -2.25,18.25 v 0 c -1.5,2 -3.5,11.5 -3.5,11.5 v 0 c 0,0 -2,-10.5 -2.5,-16.5 v 0 c -0.5,-6 -2,-14 -2,-14 v 0 L 654,87.25 650,83 c 0,0 -0.25,3.25 -2.25,12.25 v 0 c -2,9 -2.75,11.75 -2.75,12.5 v 0 c 0,0.75 -2.25,20 -4,22.75 v 0 c 0,0 -0.75,-1 -2,-4.25 v 0 c -1.25,-3.25 -3.25,-7.75 -3.25,-9 v 0 C 635.75,116 634.5,107 634.5,107 v 0 l -2,-8 c 0,0 -3,4.5 -3.5,8 v 0 c -0.5,3.5 -2.25,10 -2.5,10.75 v 0 c -0.25,0.75 -2,22.25 -2,22.25 v 0 c 0,0 -5.25,-8.75 -6.75,-18.75 m -45.114,-9.043 c -0.063,0.47 -0.136,0.543 -0.136,0.543 v 0 z M 427.459,70.75 c -0.003,-0.053 10e-4,-0.113 0.011,-0.179 v 0 c 10e-4,0.21 10e-4,0.338 -0.002,0.338 v 0 c -0.002,0 -0.005,-0.049 -0.009,-0.159"
               style="fill:url(#linearGradient1662);stroke:none"
               id="path1664"
               inkscape:connector-curvature="0" /></g></g></g></g><path
       style="fill:#c8bccc;fill-opacity:1;stroke-width:0.70621473"
       d="m 79.250853,161.35782 c -6.37928,-0.78716 -16.858455,-1.13468 -37.782487,-1.25298 -15.925142,-0.09 -31.7355236,-0.21379 -35.1341819,-0.27501 l -6.17937873,-0.11129 v -28.52935 -28.52935 l 9.71045233,-0.60201 c 5.3407483,-0.3311 19.5621473,-0.58493 31.6031083,-0.56406 24.016229,0.0416 20.916866,-0.30884 56.14407,6.34882 21.952004,4.14876 31.264814,5.22049 61.087574,7.03006 35.96674,2.18237 51.44082,3.89113 60.45787,6.67621 4.16713,1.2871 5.06464,1.9316 9.38378,6.73838 6.92889,7.71122 14.68401,11.18111 30.79394,13.77821 11.28526,1.8193 15.43707,3.4256 22.56962,8.73198 l 3.91344,2.91147 -4.94351,0.56701 c -2.71892,0.31185 -14.0007,0.39199 -25.07062,0.17809 -32.39319,-0.62593 -55.90748,0.58189 -104.16667,5.35053 -27.18811,2.68654 -57.867656,3.34486 -72.387007,1.55329 z"
       id="path1758"
       inkscape:connector-curvature="0"
       transform="matrix(0.75000002,0,0,-0.75000002,0,500.00002)" /></g></svg>